<svg viewBox="0 -55 235 310" xmlns="http://www.w3.org/2000/svg">
  <!-- OptionA Tuner Favicon -->
  <mask id="a-mask">
    <rect x="0" y="-55" width="235" height="310" fill="white"/>
    <path fill="black" d="M 86 143 L 112 46 C 113 42 113 41 115 41 L 120 41 C 122 41 122 42 123 46 L 149 143 Z"/>
  </mask>
  <path mask="url(#a-mask)" fill="#2a125e" d="M 53 250 L 2 250 C 0 250 1 248 2 245 L 72 20 C 75 10 76 0 95 0 L 140 0 C 159 0 160 10 163 20 L 233 245 C 234 248 235 250 233 250 L 182 250 C 180 250 179 248 178 245 L 161 184 L 74 184 L 57 245 C 56 248 55 250 53 250 Z"/>
  <line x1="85" y1="120" x2="85" y2="0" stroke="#7e7c7c" stroke-width="8" stroke-linecap="round"  transform="rotate(15)"/>
  <line x1="105" y1="120" x2="105" y2="0" stroke="#7e7c7c" stroke-width="8" stroke-linecap="round" transform="rotate(15)"/>
  <line x1="85" y1="120" x2="105" y2="120" stroke="#7e7c7c" stroke-width="8" stroke-linecap="round" transform="rotate(15)"/>
  <line x1="95" y1="120" x2="95" y2="220" stroke="#504227" stroke-width="8" stroke-linecap="round" transform="rotate(15)"/>
</svg>
